<?xml version="1.0" standalone="no"?>
<!DOCTYPE svg PUBLIC "-//W3C//DTD SVG 1.1//EN" "http://www.w3.org/Graphics/SVG/1.1/DTD/svg11.dtd" >
<svg xmlns="http://www.w3.org/2000/svg" xmlns:xlink="http://www.w3.org/1999/xlink" version="1.1">
<metadata></metadata>
<defs>
<font id="sf_ui_displaybold" horiz-adv-x="1326" >
<font-face units-per-em="2048" ascent="1638" descent="-410" />
<missing-glyph horiz-adv-x="440" />
<glyph horiz-adv-x="0" />
<glyph horiz-adv-x="682" />
<glyph unicode="&#xd;" horiz-adv-x="0" />
<glyph unicode=" "  horiz-adv-x="440" />
<glyph unicode="&#x09;" horiz-adv-x="440" />
<glyph unicode="&#xa0;" horiz-adv-x="440" />
<glyph unicode="!" horiz-adv-x="648" d="M161 132q0 66 47.5 111.5t115.5 45.5t115.5 -45.5t47.5 -111.5t-47.5 -111.5t-115.5 -45.5t-115.5 45.5t-47.5 111.5zM174 1443h300l-24 -968h-252z" />
<glyph unicode="&#x22;" horiz-adv-x="929" d="M108 868v575h250v-575h-250zM571 868v575h250v-575h-250z" />
<glyph unicode="#" horiz-adv-x="1271" d="M24 385l41 216h208l52 260h-199l41 214h201l75 369h220l-73 -369h234l74 369h222l-74 -369h217l-40 -214h-220l-53 -260h210l-40 -216h-212l-77 -385h-222l77 385h-234l-78 -385h-220l76 385h-206zM476 582h262l61 297h-263z" />
<glyph unicode="$" d="M94 412h286q5 -78 65 -131t155 -63v390l-106 25q-181 42 -275.5 144.5t-94.5 258.5q0 184 125.5 296.5t350.5 130.5v137h141v-138q210 -19 335.5 -132.5t128.5 -286.5h-278q-2 71 -54 124t-132 64v-373l107 -21q384 -84 384 -406q0 -190 -127.5 -304.5t-363.5 -134.5 v-129h-141v128q-236 14 -370.5 125.5t-135.5 295.5zM413 1061q0 -134 187 -174v345q-82 -5 -134.5 -52.5t-52.5 -118.5zM741 217q98 6 153 54t55 128q0 73 -51 118t-157 66v-366z" />
<glyph unicode="%" horiz-adv-x="1621" d="M45 1112q0 171 88.5 271t240.5 100t240.5 -100t88.5 -271q0 -172 -89 -273.5t-240 -101.5t-240 101.5t-89 273.5zM147 0l1054 1443h256l-1053 -1443h-257zM269 1111q0 -92 28 -145.5t77 -53.5t77 53.5t28 146.5t-27.5 144.5t-77.5 51.5q-49 0 -77 -52.5t-28 -144.5z M918 354q0 171 88.5 271t240.5 100t240.5 -100t88.5 -271q0 -172 -89 -273.5t-240 -101.5t-240 101.5t-89 273.5zM1142 353q0 -92 28 -145.5t77 -53.5t77 53.5t28 146.5t-27.5 144.5t-77.5 51.5q-49 0 -77 -52.5t-28 -144.5z" />
<glyph unicode="&#x26;" horiz-adv-x="1437" d="M68 378q0 123 64.5 215.5t202.5 168.5q6 3 22 11.5t28.5 15.5t14.5 8q-98 101 -138.5 176t-40.5 154q0 145 116.5 240t292.5 95q177 0 289.5 -92.5t112.5 -237.5q0 -111 -71 -202t-221 -173l274 -296q52 92 52 273v76h243v-93q0 -267 -122 -436l269 -281h-327l-111 120 q-80 -69 -198 -107.5t-249 -38.5q-229 0 -366 110t-137 294zM341 401q0 -97 72 -156t188 -59q78 0 150 27t114 73l-331 358q-12 -6 -40 -21q-82 -52 -117.5 -103.5t-35.5 -118.5zM471 1112q0 -50 30 -98.5t104 -120.5q98 51 141 102.5t43 116.5q0 69 -44 112.5t-114 43.5 t-115 -44t-45 -112z" />
<glyph unicode="'" horiz-adv-x="466" d="M108 868v575h250v-575h-250z" />
<glyph unicode="(" horiz-adv-x="710" d="M133 600q0 147 20 271t60 226t87 182t113 164h269q-98 -113 -173 -341t-75 -500q0 -265 65 -471.5t180 -407.5h-276q-118 148 -194 371.5t-76 505.5z" />
<glyph unicode=")" horiz-adv-x="710" d="M29 1443h268q66 -84 113.5 -164t87.5 -182t60 -226t20 -271q0 -282 -76.5 -506t-195.5 -371h-275q115 201 180 407.5t65 471.5q0 272 -75 499.5t-172 341.5z" />
<glyph unicode="*" horiz-adv-x="994" d="M106 973l271 111l-271 110l99 174l233 -182l-41 293h200l-40 -293l232 182l99 -174l-270 -110l270 -111l-99 -173l-231 179l39 -289h-200l39 289l-231 -179z" />
<glyph unicode="+" d="M124 451v255h408v432h262v-432h408v-255h-408v-437h-262v437h-408z" />
<glyph unicode="," horiz-adv-x="578" d="M89 -271l83 541h274l-136 -541h-221z" />
<glyph unicode="-" horiz-adv-x="905" d="M124 451v255h657v-255h-657z" />
<glyph unicode="." horiz-adv-x="569" d="M124 149q0 67 47 114t114 47t114 -47t47 -114t-47 -114t-114 -47t-114 47t-47 114z" />
<glyph unicode="/" horiz-adv-x="687" d="M0 -293l415 1737h272l-420 -1737h-267z" />
<glyph unicode="0" horiz-adv-x="1333" d="M83 724q0 349 156.5 550.5t427.5 201.5t427 -201t156 -550q0 -350 -155.5 -553.5t-427.5 -203.5t-428 202.5t-156 553.5zM390 724q0 -244 73.5 -379t203.5 -135t203 134.5t73 379.5q0 243 -73.5 376.5t-202.5 133.5t-203 -134t-74 -376z" />
<glyph unicode="1" horiz-adv-x="983" d="M89 912v272l373 259h300v-1443h-299v1166h-6z" />
<glyph unicode="2" horiz-adv-x="1235" d="M85 1004v5q0 205 148.5 335.5t384.5 130.5q227 0 370 -117.5t143 -299.5q0 -65 -19.5 -125.5t-62 -121t-85.5 -109t-112 -117.5l-352 -339v-6h651v-240h-1049v203l544 524q110 110 150.5 177t40.5 142q0 82 -65 138t-164 56q-105 0 -174 -65.5t-69 -165.5v-5h-280z" />
<glyph unicode="3" horiz-adv-x="1290" d="M79 413h289q7 -92 78.5 -147t189.5 -55q113 0 185 58t72 149q0 99 -70 155.5t-192 56.5h-178v218h175q103 0 167 56t64 145t-61 141.5t-172 52.5q-105 0 -170 -57t-71 -152h-278q8 201 153 321t379 120q226 0 365.5 -106t139.5 -279q0 -131 -82 -222t-216 -115v-6 q163 -14 258.5 -106.5t95.5 -241.5q0 -193 -158.5 -312t-409.5 -119q-243 0 -392.5 122t-160.5 323z" />
<glyph unicode="4" horiz-adv-x="1327" d="M72 257v257q176 336 579 929h426v-944h188v-242h-188v-257h-287v257h-718zM337 490h459v739h-6q-167 -244 -268 -406.5t-185 -324.5v-8z" />
<glyph unicode="5" horiz-adv-x="1280" d="M115 413h279q13 -92 86.5 -149t178.5 -57q118 0 192.5 74.5t74.5 192.5q0 120 -74 196t-191 76q-82 0 -148.5 -35.5t-104.5 -97.5h-270l71 830h918v-240h-681l-33 -395h6q45 74 128.5 116t192.5 42q207 0 340.5 -136.5t133.5 -347.5q0 -229 -154.5 -371.5t-402.5 -142.5 q-232 0 -383.5 124.5t-158.5 320.5z" />
<glyph unicode="6" horiz-adv-x="1317" d="M84 710q0 357 162 561.5t443 204.5q206 0 353 -111t177 -288h-297q-22 72 -86 116t-149 44q-152 0 -236.5 -138t-79.5 -381h6q44 107 146 171t238 64q206 0 341.5 -135.5t135.5 -340.5q0 -223 -156 -366.5t-398 -143.5q-156 0 -279.5 68.5t-199.5 197.5 q-121 185 -121 477zM418 471q0 -110 76 -186.5t187 -76.5q110 0 186.5 75.5t76.5 184.5q0 112 -74.5 185t-187.5 73t-188.5 -73t-75.5 -182z" />
<glyph unicode="7" horiz-adv-x="1172" d="M64 1203v240h1032v-243l-602 -1200h-317l621 1197v6h-734z" />
<glyph unicode="8" horiz-adv-x="1336" d="M83 391q0 142 94 243.5t245 126.5v6q-126 29 -203.5 118.5t-77.5 208.5q0 166 148 273.5t379 107.5q232 0 379 -107.5t147 -274.5q0 -117 -77 -206.5t-203 -119.5v-6q152 -26 245.5 -127.5t93.5 -243.5q0 -188 -162.5 -305t-422.5 -117q-262 0 -423.5 117.5t-161.5 305.5 zM398 413q0 -98 75.5 -161.5t194.5 -63.5t194 63.5t75 161.5t-75 161.5t-194 63.5t-194.5 -63.5t-75.5 -161.5zM440 1057q0 -87 64 -143t164 -56t164 56.5t64 142.5q0 87 -64 143.5t-164 56.5t-164 -56.5t-64 -143.5z" />
<glyph unicode="9" horiz-adv-x="1321" d="M79 967q0 222 157 365.5t399 143.5q157 0 281.5 -68t199.5 -196q121 -186 121 -478q0 -359 -160.5 -562.5t-445.5 -203.5q-207 0 -355 111.5t-178 288.5h298q22 -73 87.5 -117t152.5 -44q151 0 234.5 137t77.5 383h-3h-2h-1q-40 -108 -142 -172t-242 -64 q-205 0 -342 135.5t-137 340.5zM374 976q0 -111 75 -184.5t188 -73.5t188.5 73.5t75.5 182.5q0 110 -76 185.5t-186 75.5q-111 0 -188 -75t-77 -184z" />
<glyph unicode=":" horiz-adv-x="569" d="M124 149q0 67 47 114t114 47t114 -47t47 -114t-47 -114t-114 -47t-114 47t-47 114zM124 864q0 68 47 114.5t114 46.5t114 -46.5t47 -114.5q0 -67 -47 -114t-114 -47t-114 47t-47 114z" />
<glyph unicode=";" horiz-adv-x="569" d="M55 -271l82 541h276l-137 -541h-221zM124 864q0 68 47 114.5t114 46.5t114 -46.5t47 -114.5q0 -67 -47 -114t-114 -47t-114 47t-47 114z" />
<glyph unicode="&#x3c;" d="M187 466v225l953 506v-291l-657 -319v-10l657 -309v-291z" />
<glyph unicode="=" d="M139 220v251h1048v-251h-1048zM139 687v251h1048v-251h-1048z" />
<glyph unicode="&#x3e;" d="M187 -22v291l656 308v10l-656 320v290l953 -505v-226z" />
<glyph unicode="?" horiz-adv-x="1093" d="M54 1038q4 189 132 303.5t354 114.5q213 0 344 -107.5t131 -279.5q0 -111 -53 -193.5t-161 -145.5q-100 -58 -135 -104t-35 -120v-53h-265l-2 58q-10 116 32.5 191t147.5 137q97 58 132.5 104t35.5 117q0 72 -52.5 118t-137.5 46q-86 0 -139 -50.5t-58 -135.5h-271z M339 132q0 66 47.5 111.5t115.5 45.5t116 -45.5t48 -111.5t-48 -111.5t-116 -45.5t-115.5 45.5t-47.5 111.5z" />
<glyph unicode="@" horiz-adv-x="1810" d="M80 615q0 245 107 435t299.5 294.5t439.5 104.5q235 0 418.5 -92.5t286 -262t102.5 -388.5q0 -237 -105.5 -377.5t-287.5 -140.5q-94 0 -159.5 42.5t-81.5 114.5h-14q-63 -154 -241 -154q-156 0 -251.5 116.5t-95.5 306.5q0 182 93.5 295.5t243.5 113.5q81 0 144.5 -38 t92.5 -104h14v120h203v-535q0 -53 24.5 -83t70.5 -30q75 0 120.5 90.5t45.5 247.5q0 272 -172.5 435.5t-457.5 163.5q-289 0 -472 -189.5t-183 -490.5q0 -311 189.5 -489t503.5 -178q178 0 273 35v-160q-125 -37 -288 -37q-189 0 -348 58t-273 164.5t-177.5 263.5t-63.5 348 zM724 608q0 -109 44.5 -171t123.5 -62q81 0 128 62.5t47 170.5t-47 170.5t-127 62.5q-79 0 -124 -61.5t-45 -171.5z" />
<glyph unicode="A" horiz-adv-x="1413" d="M28 0l501 1443h355l502 -1443h-321l-110 350h-507l-110 -350h-310zM513 576h377l-185 591h-7z" />
<glyph unicode="B" horiz-adv-x="1319" d="M120 0v1443h637q203 0 322 -97t119 -263q0 -118 -77.5 -207t-193.5 -106v-8q148 -11 244 -109t96 -240q0 -191 -134 -302t-365 -111h-648zM422 225h269q131 0 199.5 54.5t68.5 157.5q0 101 -70.5 154t-204.5 53h-262v-419zM422 843h226q121 0 187 50.5t66 142.5 q0 87 -58 134.5t-164 47.5h-257v-375z" />
<glyph unicode="C" horiz-adv-x="1459" d="M75 722q0 347 184 546.5t499 199.5q172 0 312.5 -68t225.5 -192t96 -283h-294q-21 133 -114.5 213t-225.5 80q-171 0 -273 -134t-102 -361q0 -231 101 -364.5t275 -133.5q134 0 225 74t115 202h294q-25 -241 -197 -383.5t-438 -142.5q-316 0 -499.5 199.5t-183.5 547.5z " />
<glyph unicode="D" horiz-adv-x="1438" d="M120 0v1443h556q326 0 507 -187t181 -529q0 -343 -181.5 -535t-506.5 -192h-556zM422 250h218q203 0 309.5 121.5t106.5 354.5q0 226 -108 347t-308 121h-218v-944z" />
<glyph unicode="E" horiz-adv-x="1174" d="M120 0v1443h956v-249h-654v-348h617v-232h-617v-364h654v-250h-956z" />
<glyph unicode="F" horiz-adv-x="1123" d="M120 0v1443h945v-249h-643v-387h587v-239h-587v-568h-302z" />
<glyph unicode="G" horiz-adv-x="1489" d="M75 726q0 346 184.5 544t503.5 198q252 0 427 -136t207 -355h-303q-33 113 -120.5 177t-209.5 64q-179 0 -280 -129t-101 -359q0 -234 105.5 -369t286.5 -135q148 0 241.5 83t98.5 217l1 23h-314v220h608v-163q0 -295 -169.5 -463t-470.5 -168q-324 0 -509.5 200 t-185.5 551z" />
<glyph unicode="H" horiz-adv-x="1494" d="M120 0v1443h302v-586h650v586h302v-1443h-302v608h-650v-608h-302z" />
<glyph unicode="I" horiz-adv-x="542" d="M120 0v1443h302v-1443h-302z" />
<glyph unicode="J" horiz-adv-x="1143" d="M31 425h293q2 -88 54.5 -141t137.5 -53q95 0 144.5 57t49.5 166v989h302v-991q0 -229 -130 -355.5t-363 -126.5q-221 0 -354.5 124t-133.5 331z" />
<glyph unicode="K" horiz-adv-x="1353" d="M120 0v1443h302v-658h9l542 658h336l-534 -640l571 -803h-361l-428 603l-135 -162v-441h-302z" />
<glyph unicode="L" horiz-adv-x="1112" d="M120 0v1443h302v-1193h631v-250h-933z" />
<glyph unicode="M" horiz-adv-x="1768" d="M120 0v1443h350l410 -1023h8l410 1023h350v-1443h-269v974h-8l-392 -960h-190l-392 960h-8v-974h-269z" />
<glyph unicode="N" horiz-adv-x="1463" d="M120 0v1443h252l674 -940h8v940h289v-1443h-250l-675 945h-9v-945h-289z" />
<glyph unicode="O" horiz-adv-x="1541" d="M75 721q0 345 187.5 546t508.5 201t508.5 -201t187.5 -546q0 -344 -188 -545t-508 -201q-321 0 -508.5 201t-187.5 545zM383 721q0 -226 105 -359.5t283 -133.5q177 0 282 133.5t105 359.5q0 227 -105 361t-282 134t-282.5 -134t-105.5 -361z" />
<glyph unicode="P" horiz-adv-x="1280" d="M120 0v1443h602q223 0 361.5 -136t138.5 -358q0 -221 -143 -357.5t-372 -136.5h-285v-455h-302zM422 691h219q130 0 202 67t72 190t-71.5 189.5t-201.5 66.5h-220v-513z" />
<glyph unicode="Q" horiz-adv-x="1541" d="M75 721q0 344 187.5 545.5t508.5 201.5q320 0 507.5 -201.5t187.5 -545.5q0 -190 -59 -339.5t-171 -241.5l183 -276h-293l-103 151q-114 -40 -252 -40q-322 0 -509 200t-187 546zM383 721q0 -227 105 -361.5t283 -134.5q53 0 103 14l-158 236h273l63 -86q106 122 106 332 q0 227 -105 362.5t-282 135.5q-178 0 -283 -135.5t-105 -362.5z" />
<glyph unicode="R" horiz-adv-x="1316" d="M120 0v1443h596q247 0 384.5 -122.5t137.5 -337.5q0 -141 -69.5 -251.5t-192.5 -158.5l304 -573h-342l-269 528h-247v-528h-302zM422 747h265q114 0 177.5 61t63.5 169q0 105 -66 167.5t-178 62.5h-262v-460z" />
<glyph unicode="S" horiz-adv-x="1293" d="M66 411h291q10 -88 93.5 -142.5t204.5 -54.5q120 0 195.5 51.5t75.5 131.5q0 70 -56 113t-187 72l-188 41q-397 85 -397 403q0 198 154.5 320t397.5 122q250 0 399 -118.5t153 -315.5h-283q-7 91 -80.5 143.5t-187.5 52.5q-112 0 -180.5 -49t-68.5 -129q0 -66 55.5 -107 t180.5 -70l175 -37q217 -46 316 -143.5t99 -262.5q0 -210 -158 -333.5t-427 -123.5q-261 0 -415.5 116.5t-161.5 319.5z" />
<glyph unicode="T" horiz-adv-x="1242" d="M48 1194v249h1147v-249h-423v-1194h-302v1194h-422z" />
<glyph unicode="U" horiz-adv-x="1449" d="M120 510v933h302v-903q0 -141 79.5 -223.5t223.5 -82.5q143 0 222.5 82.5t79.5 223.5v903h302v-933q0 -240 -164.5 -387.5t-439.5 -147.5q-276 0 -440.5 147.5t-164.5 387.5z" />
<glyph unicode="V" horiz-adv-x="1389" d="M28 1443h338l330 -1132h7l330 1132h329l-485 -1443h-364z" />
<glyph unicode="W" horiz-adv-x="1977" d="M43 1443h313l227 -1045h8l270 1045h255l270 -1045h8l228 1045h313l-383 -1443h-285l-274 986h-9l-274 -986h-285z" />
<glyph unicode="X" horiz-adv-x="1404" d="M43 0l458 723v8l-455 712h355l306 -520h8l309 520h337l-472 -718v-7l466 -718h-344l-316 505h-8l-318 -505h-326z" />
<glyph unicode="Y" horiz-adv-x="1362" d="M28 1443h329l323 -616h7l324 616h324l-503 -904v-539h-302v539z" />
<glyph unicode="Z" horiz-adv-x="1292" d="M89 0v197l733 989v8h-716v249h1077v-196l-730 -990v-7h750v-250h-1114z" />
<glyph unicode="[" horiz-adv-x="755" d="M148 -240v1684h574v-215h-294v-1255h307v-214h-587z" />
<glyph unicode="\" horiz-adv-x="687" d="M0 1444h272l415 -1738h-266z" />
<glyph unicode="]" horiz-adv-x="755" d="M21 -26h307v1255h-294v215h574v-1684h-587v214z" />
<glyph unicode="^" horiz-adv-x="978" d="M35 823l326 611h259l324 -611h-263l-184 377h-17l-189 -377h-256z" />
<glyph unicode="_" horiz-adv-x="857" d="M-46 -107h949v-218h-949v218z" />
<glyph unicode="`" horiz-adv-x="1010" d="M257 1573h273l221 -310h-231z" />
<glyph unicode="a" horiz-adv-x="1147" d="M54 317q0 149 111 233t323 97l275 17v73q0 79 -51 121.5t-142 42.5q-78 0 -130.5 -37.5t-63.5 -98.5h-267q6 158 136.5 256.5t336.5 98.5q212 0 340 -100t128 -265v-755h-282v170h-6q-44 -85 -136.5 -134t-200.5 -49q-161 0 -266 92t-105 238zM345 332q0 -61 47.5 -96.5 t127.5 -35.5q103 0 173 57.5t70 146.5v81l-231 -16q-91 -6 -139 -41t-48 -96z" />
<glyph unicode="b" horiz-adv-x="1252" d="M107 0v1512h292v-599h6q46 96 134.5 148.5t205.5 52.5q209 0 329 -150.5t120 -412.5t-120 -413t-328 -151q-120 0 -210 52.5t-136 148.5h-6v-188h-287zM397 550q1 -148 69.5 -237.5t180.5 -89.5q113 0 180.5 89t67.5 239q0 149 -67.5 238t-180.5 89q-112 0 -180.5 -90 t-69.5 -238z" />
<glyph unicode="c" horiz-adv-x="1142" d="M58 551q0 261 145.5 415t391.5 154q218 0 353 -119t146 -306h-272q-12 88 -71 141.5t-152 53.5q-113 0 -179 -90.5t-66 -248.5q0 -160 66 -249.5t180 -89.5q93 0 151 49t72 139h272q-13 -192 -147.5 -305.5t-350.5 -113.5q-248 0 -393.5 153t-145.5 417z" />
<glyph unicode="d" horiz-adv-x="1249" d="M58 552q0 258 123 410t329 152q118 0 206.5 -54t130.5 -147h6v599h292v-1512h-288v188h-5q-41 -92 -132 -146.5t-211 -54.5q-206 0 -328.5 152.5t-122.5 412.5zM357 551q0 -151 67.5 -239.5t181.5 -88.5q113 0 181 89t68 238t-68 238.5t-181 89.5q-114 0 -181.5 -88.5 t-67.5 -238.5z" />
<glyph unicode="e" horiz-adv-x="1164" d="M58 546q0 263 143.5 418.5t385.5 155.5q238 0 378.5 -148t140.5 -399v-90h-760v-18q0 -119 71 -192.5t186 -73.5q83 0 143.5 36.5t81.5 100.5h269q-24 -160 -161 -257.5t-338 -97.5q-251 0 -395.5 151t-144.5 414zM349 664h475q-4 108 -68 173t-166 65q-100 0 -166.5 -66 t-74.5 -172z" />
<glyph unicode="f" horiz-adv-x="734" d="M28 880v221h149v98q0 159 82.5 229t273.5 70q68 0 135 -10v-203q-37 7 -80 7q-66 0 -95 -26t-30 -84v-81h206v-221h-200v-880h-292v880h-149z" />
<glyph unicode="g" horiz-adv-x="1244" d="M58 554q0 259 122 409.5t331 150.5q117 0 207 -54t134 -147h5v188h288v-1076q0 -196 -147.5 -312t-396.5 -116q-218 0 -357 88.5t-150 236.5h288q14 -54 76.5 -86.5t149.5 -32.5q112 0 178.5 54t66.5 146v197h-6q-40 -89 -131 -141t-210 -52q-203 0 -325.5 147.5 t-122.5 399.5zM357 553q0 -149 66.5 -234.5t180.5 -85.5t182 86t68 233q0 149 -68 237.5t-182 88.5q-113 0 -180 -88t-67 -237z" />
<glyph unicode="h" horiz-adv-x="1247" d="M107 0v1512h287v-608h6q46 104 138 158.5t218 54.5q183 0 290 -111t107 -302v-704h-292v643q0 108 -59.5 169.5t-163.5 61.5q-107 0 -173 -69t-66 -180v-625h-292z" />
<glyph unicode="i" horiz-adv-x="500" d="M93 1374q0 65 46 108.5t111 43.5q66 0 112 -43.5t46 -108.5t-46 -109t-112 -44q-65 0 -111 44t-46 109zM104 0v1101h292v-1101h-292z" />
<glyph unicode="j" horiz-adv-x="500" d="M-73 -157q6 -1 37 -1q76 0 108 29.5t32 98.5v1131h292v-1138q0 -168 -99 -253.5t-292 -85.5q-60 0 -78 3v216zM93 1374q0 65 46 108.5t111 43.5q66 0 112 -43.5t46 -108.5t-46 -109t-112 -44q-65 0 -111 44t-46 109z" />
<glyph unicode="k" horiz-adv-x="1126" d="M107 0v1512h292v-856h4l381 445h332l-424 -473l444 -628h-336l-322 452l-79 -85v-367h-292z" />
<glyph unicode="l" horiz-adv-x="505" d="M107 0v1512h292v-1512h-292z" />
<glyph unicode="m" horiz-adv-x="1811" d="M99 0v1101h282v-200h6q35 100 119.5 158t194.5 58q119 0 199 -58.5t108 -166.5h6q38 104 130 164.5t212 60.5q162 0 261.5 -101.5t99.5 -267.5v-748h-292v675q0 97 -47.5 148.5t-136.5 51.5q-86 0 -139 -57.5t-53 -151.5v-666h-282v686q0 88 -48 138.5t-133 50.5 q-86 0 -140.5 -59.5t-54.5 -153.5v-662h-292z" />
<glyph unicode="n" horiz-adv-x="1227" d="M99 0v1101h282v-197h6q97 213 354 213q183 0 287.5 -109t104.5 -302v-706h-292v645q0 110 -56.5 169.5t-159.5 59.5q-105 0 -169.5 -68t-64.5 -178v-628h-292z" />
<glyph unicode="o" horiz-adv-x="1201" d="M58 551q0 263 147 416t396 153q250 0 396.5 -152.5t146.5 -416.5q0 -267 -145.5 -418.5t-397.5 -151.5q-251 0 -397 152t-146 418zM354 551q0 -164 65.5 -254.5t181.5 -90.5t181 90.5t65 254.5q0 162 -65.5 253.5t-180.5 91.5q-116 0 -181.5 -91.5t-65.5 -253.5z" />
<glyph unicode="p" horiz-adv-x="1244" d="M99 -346v1447h288v-188h6q44 93 135 147t207 54q210 0 331 -150.5t121 -412.5t-120.5 -413t-327.5 -151q-119 0 -208 52t-134 146h-6v-531h-292zM390 550q0 -148 68 -237.5t180 -89.5q114 0 182 89t68 239q0 148 -68.5 237.5t-181.5 89.5q-112 0 -180 -90t-68 -238z" />
<glyph unicode="q" horiz-adv-x="1244" d="M58 552q0 259 122 410.5t331 151.5q118 0 208 -54t133 -147h5v188h288v-1447h-292v531h-6q-40 -90 -131.5 -144t-209.5 -54q-206 0 -327 152.5t-121 412.5zM357 551q0 -151 66.5 -239.5t180.5 -88.5t182 89t68 238t-68.5 238.5t-181.5 89.5t-180 -88.5t-67 -238.5z" />
<glyph unicode="r" horiz-adv-x="759" d="M99 0v1101h282v-197h6q28 101 96 155.5t166 54.5q49 0 82 -11v-259q-39 18 -105 18q-111 0 -173 -65t-62 -181v-616h-292z" />
<glyph unicode="s" horiz-adv-x="1078" d="M53 333h285q11 -70 65 -107.5t145 -37.5q87 0 137 31.5t50 85.5q0 43 -31.5 68t-106.5 43l-203 46q-314 71 -314 315q0 155 126 249t335 94q204 0 329 -95.5t128 -253.5h-270q-5 65 -56 103.5t-135 38.5q-79 0 -127 -32.5t-48 -85.5q0 -81 147 -115l207 -45 q166 -38 237.5 -107t71.5 -192q0 -160 -134 -257.5t-351 -97.5q-215 0 -345.5 95.5t-141.5 256.5z" />
<glyph unicode="t" horiz-adv-x="741" d="M28 880v221h149v245h292v-245h204v-221h-204v-535q0 -126 131 -126q43 0 73 5v-216q-60 -12 -141 -12q-191 0 -273 70t-82 231v583h-149z" />
<glyph unicode="u" horiz-adv-x="1227" d="M94 395v706h292v-645q0 -110 58 -169.5t161 -59.5t167 68t64 179v627h292v-1101h-282v199h-6q-42 -104 -131.5 -159.5t-214.5 -55.5q-181 0 -290.5 110.5t-109.5 300.5z" />
<glyph unicode="v" horiz-adv-x="1106" d="M8 1101h312l234 -840h6l233 840h305l-380 -1101h-328z" />
<glyph unicode="w" horiz-adv-x="1654" d="M20 1101h294l170 -822h6l199 822h280l200 -822h6l171 822h288l-293 -1101h-310l-203 784h-6l-201 -784h-307z" />
<glyph unicode="x" horiz-adv-x="1104" d="M23 0l348 549l-345 552h329l202 -375h6l201 375h317l-346 -545l344 -556h-319l-212 385h-6l-211 -385h-308z" />
<glyph unicode="y" horiz-adv-x="1136" d="M13 1101h320l238 -864h6l239 864h308l-381 -1123q-70 -210 -183.5 -295t-320.5 -85q-89 0 -111 4v226q15 -3 66 -3q83 0 130.5 30.5t64.5 95.5l10 42z" />
<glyph unicode="z" horiz-adv-x="1059" d="M78 0v168l553 704v5h-545v224h883v-186l-521 -685v-6h534v-224h-904z" />
<glyph unicode="{" horiz-adv-x="837" d="M122 476v269q95 0 131.5 45.5t36.5 163.5v191q0 197 102 285t331 88h104v-212h-44q-123 0 -169 -44.5t-46 -162.5v-242q0 -110 -50 -166t-157 -66v-30q207 -18 207 -248v-266q0 -118 46.5 -162.5t168.5 -44.5h44v-212h-104q-228 0 -330.5 90t-102.5 292v225 q0 117 -36.5 162t-131.5 45z" />
<glyph unicode="|" horiz-adv-x="603" d="M165 -293v1736h273v-1736h-273z" />
<glyph unicode="}" horiz-adv-x="837" d="M10 -126h45q122 0 168 44.5t46 162.5v266q0 230 209 248v30q-108 10 -158.5 66.5t-50.5 165.5v242q0 118 -46 162.5t-168 44.5h-45v212h105q229 0 330.5 -87.5t101.5 -285.5v-191q0 -118 37 -163.5t132 -45.5v-269q-95 0 -132 -45t-37 -162v-225q0 -202 -102 -292 t-330 -90h-105v212z" />
<glyph unicode="~" horiz-adv-x="1199" d="M69 528q-9 195 77.5 309.5t243.5 114.5q130 0 260 -130q43 -45 73.5 -63t63.5 -18q111 0 116 178h228q9 -195 -77.5 -309.5t-243.5 -114.5q-68 0 -128.5 30.5t-128.5 98.5q-46 46 -76.5 64t-63.5 18q-111 0 -116 -178h-228z" />
<glyph unicode="&#xa1;" horiz-adv-x="648" d="M161 989q0 67 47.5 112t115.5 45t115.5 -45t47.5 -112q0 -65 -47.5 -110.5t-115.5 -45.5t-115.5 45.5t-47.5 110.5zM174 -324l24 969h252l24 -969h-300z" />
<glyph unicode="&#xa2;" d="M115 703q0 222 119 371.5t320 186.5v187h242v-183q174 -26 289.5 -140t126.5 -273h-272q-17 86 -85.5 138.5t-165.5 52.5q-124 0 -202.5 -93t-78.5 -247q0 -156 78.5 -250.5t201.5 -94.5q103 0 168.5 46.5t83.5 137.5h272q-14 -162 -127.5 -271.5t-288.5 -135.5v-182 h-242v187q-202 38 -320.5 188t-118.5 375z" />
<glyph unicode="&#xa3;" d="M106 0v232q134 20 218.5 111t84.5 215q0 32 -7 76h-292v207h224q-59 148 -59 244q0 187 146.5 291t411.5 104q90 0 184 -14.5t146 -35.5v-236q-49 22 -131.5 36.5t-160.5 14.5q-139 0 -216 -53.5t-77 -150.5q0 -76 45 -200h414v-207h-349q4 -38 4 -57q0 -102 -50 -188 t-126 -133v-8h714v-248h-1124z" />
<glyph unicode="&#xa4;" horiz-adv-x="1351" d="M136 275l150 150q-60 104 -60 224t60 224l-150 150l166 166l149 -149q106 60 225 60q120 0 224 -60l149 149l166 -166l-149 -149q60 -104 60 -225t-60 -225l149 -149l-166 -166l-150 150q-103 -60 -223 -60t-224 60l-150 -150zM442 649q0 -96 69 -165.5t165 -69.5 t165 69.5t69 165.5t-69 166t-165 70t-165 -70t-69 -166z" />
<glyph unicode="&#xa5;" d="M10 1443h327l323 -613h9l320 613h327l-425 -763h195v-166h-271v-136h271v-166h-271v-212h-302v212h-271v166h271v136h-271v166h195z" />
<glyph unicode="&#xa6;" horiz-adv-x="604" d="M166 -293v670h273v-670h-273zM166 774v669h273v-669h-273z" />
<glyph unicode="&#xa7;" horiz-adv-x="994" d="M49 536q0 94 57.5 165t157.5 102v18q-107 49 -156 114.5t-49 159.5q0 151 120 243t318 92q184 0 301.5 -89t128.5 -237h-251q-7 55 -57 88.5t-124 33.5q-77 0 -124 -35.5t-47 -93.5q0 -43 34 -72.5t113 -55.5l171 -58q160 -53 232 -123t72 -173q0 -98 -63.5 -174 t-167.5 -104v-18q116 -43 169.5 -106.5t53.5 -159.5q0 -151 -122 -244t-320 -93q-187 0 -308 92t-128 240h253q7 -57 59.5 -92t127.5 -35q78 0 126 36t48 94q0 43 -35 73t-114 54l-175 58q-158 51 -229.5 122t-71.5 178zM303 591q0 -48 37.5 -85.5t104.5 -56.5l109 -36 q59 8 99 49t40 94q0 49 -36.5 85.5t-104.5 55.5l-109 37q-58 -8 -99 -50t-41 -93z" />
<glyph unicode="&#xa8;" horiz-adv-x="1010" d="M161 1390q0 54 39 92.5t96 38.5t96 -38.5t39 -92.5t-39 -92.5t-96 -38.5t-96 38.5t-39 92.5zM580 1390q0 54 39 92.5t96 38.5t96 -38.5t39 -92.5t-39 -92.5t-96 -38.5t-96 38.5t-39 92.5z" />
<glyph unicode="&#xa9;" horiz-adv-x="1697" d="M60 650q0 163 62 309.5t167.5 251.5t251.5 166.5t308 61.5q216 0 397 -104t286 -285.5t105 -399.5q0 -163 -62 -309t-167 -251.5t-251 -167t-308 -61.5t-308 62t-251.5 167t-167.5 251.5t-62 308.5zM224 650q0 -173 83.5 -316.5t227 -226t314.5 -82.5t314.5 82.5 t226.5 226t83 316.5q0 130 -49 246.5t-132.5 199.5t-199 131.5t-243.5 48.5q-171 0 -314.5 -82t-227 -226.5t-83.5 -317.5zM482 652q0 183 103 290t278 107q149 0 243.5 -80t109.5 -209h-188q-12 58 -54.5 93.5t-107.5 35.5q-84 0 -133 -63t-49 -174q0 -113 48.5 -176.5 t133.5 -63.5q65 0 107.5 32t54.5 90h188q-14 -129 -107.5 -205.5t-243.5 -76.5q-177 0 -280 107t-103 293z" />
<glyph unicode="&#xaa;" horiz-adv-x="964" d="M84 817q0 120 88.5 188.5t258.5 79.5l193 11v70q1 47 -34.5 74.5t-96.5 27.5q-115 0 -132 -78h-245q9 128 112 201t274 73q176 0 277 -81t101 -222v-598h-250v107h-15q-34 -58 -99.5 -91t-147.5 -33q-129 0 -206.5 74t-77.5 197zM339 833q0 -47 34 -74.5t93 -27.5 q69 0 114.5 42t45.5 106v67l-155 -12q-132 -9 -132 -101z" />
<glyph unicode="&#xab;" horiz-adv-x="1356" d="M113 562v8l348 411h271l-346 -409v-10l346 -411h-275zM624 562v8l348 411h271l-346 -409v-10l346 -411h-275z" />
<glyph unicode="&#xac;" d="M141 460v248h1044v-642h-255v394h-789z" />
<glyph unicode="&#xad;" horiz-adv-x="905" d="M124 451v255h657v-255h-657z" />
<glyph unicode="&#xae;" horiz-adv-x="1133" d="M80 1011q0 200 142.5 341.5t344.5 141.5q132 0 244 -64.5t177 -175.5t65 -243q0 -131 -65 -242t-177 -175.5t-244 -64.5t-244.5 64.5t-177.5 175.5t-65 242zM211 1011q0 -148 104 -251.5t252 -103.5t251.5 103.5t103.5 251.5q0 149 -103.5 252.5t-251.5 103.5 q-149 0 -252.5 -103.5t-103.5 -252.5zM372 799v443h232q74 0 119.5 -39t45.5 -103q0 -50 -25 -86t-68 -47l116 -168h-143l-96 151h-62v-151h-119zM491 1037h86q66 0 66 56q0 55 -64 55h-88v-111z" />
<glyph unicode="&#xaf;" horiz-adv-x="1000" d="M166 1298v143h669v-143h-669z" />
<glyph unicode="&#xb0;" horiz-adv-x="719" d="M58 1117q0 127 87 214t214 87q128 0 215 -86.5t87 -214.5q0 -127 -87.5 -214.5t-214.5 -87.5t-214 87t-87 215zM227 1117q0 -55 39.5 -95t93.5 -40q56 0 94 40t38 95q0 56 -38.5 95t-93.5 39q-54 0 -93.5 -39.5t-39.5 -94.5z" />
<glyph unicode="&#xb1;" d="M164 75v218h996v-218h-996zM164 651v216h375v240h248v-240h375v-216h-375v-239h-248v239h-375z" />
<glyph unicode="&#xb2;" horiz-adv-x="668" d="M31 1569v5q0 112 81 178.5t217 66.5q129 0 207.5 -58.5t78.5 -153.5q0 -57 -28.5 -104t-99.5 -107l-146 -125v-4h282v-172h-578v153l290 248q57 53 57 92q0 28 -20.5 45.5t-53.5 17.5t-55 -22t-22 -55v-5h-210z" />
<glyph unicode="&#xb3;" horiz-adv-x="696" d="M37 1318h219q1 -31 24 -48.5t61 -17.5q37 0 59.5 17.5t22.5 45.5q0 30 -22.5 47t-61.5 17h-84v148h87q34 0 55.5 17.5t21.5 45.5q0 29 -21.5 46t-58.5 17t-59.5 -21t-24.5 -55h-205q-2 110 78.5 176t215.5 66q129 0 208 -54t79 -142q0 -61 -40.5 -105t-106.5 -55v-5 q79 -9 124.5 -53.5t45.5 -113.5q0 -100 -84.5 -158.5t-227.5 -58.5q-133 0 -216.5 67t-88.5 177z" />
<glyph unicode="&#xb4;" horiz-adv-x="1010" d="M259 1263l221 310h273l-263 -310h-231z" />
<glyph unicode="&#xb6;" horiz-adv-x="1473" d="M90 945q0 216 147 357t378 141h299v-1698h-280v710h-20q-225 0 -374.5 141.5t-149.5 348.5zM1083 -255v1698h280v-1698h-280z" />
<glyph unicode="&#xb7;" horiz-adv-x="632" d="M156 629q0 67 47 114t114 47t114 -47t47 -114t-47 -114t-114 -47t-114 47t-47 114z" />
<glyph unicode="&#xb8;" horiz-adv-x="1010" d="M336 -325q40 -14 111 -14q107 0 107 55q0 31 -28.5 43.5t-96.5 12.5h-56v101l63 139l145 -12l-49 -116q88 0 136.5 -41.5t48.5 -117.5q0 -86 -64 -135.5t-177 -50.5q-88 0 -140 16v120z" />
<glyph unicode="&#xb9;" horiz-adv-x="551" d="M54 1494v190l174 114h230v-703h-228v511h-4z" />
<glyph unicode="&#xba;" horiz-adv-x="1039" d="M77 1000q0 215 118.5 339.5t323.5 124.5q206 0 324.5 -124t118.5 -340q0 -219 -117 -341.5t-326 -122.5q-208 0 -325 123t-117 341zM346 999q0 -124 45 -191.5t128 -67.5t128.5 68t45.5 192q0 123 -45.5 191t-128.5 68q-82 0 -127.5 -68.5t-45.5 -191.5z" />
<glyph unicode="&#xbb;" horiz-adv-x="1356" d="M113 151l346 411v10l-346 409h271l348 -411v-8l-344 -411h-275zM624 151l346 411v10l-346 409h271l348 -411v-8l-344 -411h-275z" />
<glyph unicode="&#xbc;" horiz-adv-x="1625" d="M64 1142v190l174 114h230v-703h-228v511h-4zM113 0l1054 1443h256l-1053 -1443h-257zM945 96v190q88 173 244 417h318v-432h80v-175h-80v-96h-218v96h-344zM1133 261h163v294h-4q-103 -176 -159 -290v-4z" />
<glyph unicode="&#xbd;" horiz-adv-x="1622" d="M64 1142v190l174 114h230v-703h-228v511h-4zM113 0l1054 1443h256l-1053 -1443h-257zM994 474v5q0 112 81 178.5t217 66.5q129 0 207.5 -58.5t78.5 -153.5q0 -57 -28.5 -104t-99.5 -107l-146 -125v-4h282v-172h-578v153l290 248q57 53 57 92q0 28 -20.5 45.5t-53.5 17.5 t-55 -22t-22 -55v-5h-210z" />
<glyph unicode="&#xbe;" horiz-adv-x="1715" d="M37 966h219q1 -31 24 -48.5t61 -17.5q37 0 59.5 17.5t22.5 45.5q0 30 -22.5 47t-61.5 17h-84v148h87q34 0 55.5 17.5t21.5 45.5q0 29 -21.5 46t-58.5 17t-59.5 -21t-24.5 -55h-205q-2 110 78.5 176t215.5 66q129 0 208 -54t79 -142q0 -61 -40.5 -105t-106.5 -55v-5 q79 -9 124.5 -53.5t45.5 -113.5q0 -100 -84.5 -158.5t-227.5 -58.5q-133 0 -216.5 67t-88.5 177zM218 0l1054 1443h256l-1053 -1443h-257zM1035 96v190q88 173 244 417h318v-432h80v-175h-80v-96h-218v96h-344zM1223 261h163v294h-4q-103 -176 -159 -290v-4z" />
<glyph unicode="&#xbf;" horiz-adv-x="1093" d="M79 50q0 110 53.5 192t160.5 146q100 59 135 105t35 119v53h264l2 -58q10 -116 -32 -191t-148 -137q-97 -58 -132.5 -104t-35.5 -116q0 -73 53 -119t138 -46t138 50.5t58 135.5h272q-4 -189 -132 -303.5t-353 -114.5q-214 0 -345 107.5t-131 280.5zM421 989 q0 66 47.5 111.5t116.5 45.5q68 0 115.5 -45.5t47.5 -111.5q0 -65 -47.5 -110.5t-115.5 -45.5t-116 45.5t-48 110.5z" />
<glyph unicode="&#xc0;" horiz-adv-x="1413" d="M28 0l501 1443h355l502 -1443h-321l-110 350h-507l-110 -350h-310zM319 1868h273l232 -310h-227zM513 576h377l-185 591h-7z" />
<glyph unicode="&#xc1;" horiz-adv-x="1413" d="M28 0l501 1443h355l502 -1443h-321l-110 350h-507l-110 -350h-310zM513 576h377l-185 591h-7zM588 1553l232 310h273l-277 -310h-228z" />
<glyph unicode="&#xc2;" horiz-adv-x="1413" d="M28 0l501 1443h355l502 -1443h-321l-110 350h-507l-110 -350h-310zM319 1543l274 318h228l274 -318h-222l-163 197h-6l-163 -197h-222zM513 576h377l-185 591h-7z" />
<glyph unicode="&#xc3;" horiz-adv-x="1413" d="M28 0l501 1443h355l502 -1443h-321l-110 350h-507l-110 -350h-310zM362 1558q0 126 60 198.5t155 72.5q39 0 74 -14t59 -33.5t45 -39.5t42.5 -34t40.5 -14q63 0 65 122h158q0 -125 -60.5 -200t-153.5 -75q-46 0 -87.5 21.5t-65.5 46.5t-52.5 46.5t-52.5 21.5 q-33 0 -50.5 -32.5t-18.5 -86.5h-158zM513 576h377l-185 591h-7z" />
<glyph unicode="&#xc4;" horiz-adv-x="1413" d="M28 0l501 1443h355l502 -1443h-321l-110 350h-507l-110 -350h-310zM363 1692q0 54 39 92.5t96 38.5t96 -38.5t39 -92.5t-39 -92.5t-96 -38.5t-96 38.5t-39 92.5zM513 576h377l-185 591h-7zM782 1692q0 54 39 92.5t96 38.5t96 -38.5t39 -92.5t-39 -92.5t-96 -38.5 t-96 38.5t-39 92.5z" />
<glyph unicode="&#xc5;" horiz-adv-x="1413" d="M28 0l501 1443h355l502 -1443h-321l-110 350h-507l-110 -350h-310zM486 1730q0 89 65.5 153t155.5 64q91 0 156 -64t65 -153t-65 -153t-156 -64q-90 0 -155.5 64t-65.5 153zM513 576h377l-185 591h-7zM605 1730q0 -41 30.5 -70.5t71.5 -29.5q42 0 72 29.5t30 70.5t-30 71 t-72 30q-41 0 -71.5 -30t-30.5 -71z" />
<glyph unicode="&#xc6;" horiz-adv-x="2039" d="M28 0l613 1443h1270v-249h-669v-353h632v-232h-632v-360h669v-249h-945v373h-479l-158 -373h-301zM575 599h391v612h-136z" />
<glyph unicode="&#xc7;" horiz-adv-x="1459" d="M75 722q0 347 184 546.5t499 199.5q172 0 312.5 -68t225.5 -192t96 -283h-294q-21 133 -114.5 213t-225.5 80q-171 0 -273 -134t-102 -361q0 -231 101 -364.5t275 -133.5q134 0 225 74t115 202h294q-24 -224 -175.5 -364t-389.5 -159l-40 -94q88 0 136.5 -41.5 t48.5 -117.5q0 -86 -64 -135.5t-177 -50.5q-88 0 -140 16v120q40 -14 111 -14q107 0 107 55q0 31 -28.5 43.5t-96.5 12.5h-56v101l48 106q-281 26 -441.5 222t-160.5 521z" />
<glyph unicode="&#xc8;" horiz-adv-x="1174" d="M120 0v1443h956v-249h-654v-348h617v-232h-617v-364h654v-250h-956zM210 1868h273l232 -310h-227z" />
<glyph unicode="&#xc9;" horiz-adv-x="1174" d="M120 0v1443h956v-249h-654v-348h617v-232h-617v-364h654v-250h-956zM479 1553l232 310h273l-277 -310h-228z" />
<glyph unicode="&#xca;" horiz-adv-x="1174" d="M120 0v1443h956v-249h-654v-348h617v-232h-617v-364h654v-250h-956zM210 1543l274 318h228l274 -318h-222l-163 197h-6l-163 -197h-222z" />
<glyph unicode="&#xcb;" horiz-adv-x="1174" d="M120 0v1443h956v-249h-654v-348h617v-232h-617v-364h654v-250h-956zM254 1692q0 54 39 92.5t96 38.5t96 -38.5t39 -92.5t-39 -92.5t-96 -38.5t-96 38.5t-39 92.5zM673 1692q0 54 39 92.5t96 38.5t96 -38.5t39 -92.5t-39 -92.5t-96 -38.5t-96 38.5t-39 92.5z" />
<glyph unicode="&#xcc;" horiz-adv-x="542" d="M-117 1868h273l232 -310h-227zM120 0v1443h302v-1443h-302z" />
<glyph unicode="&#xcd;" horiz-adv-x="542" d="M120 0v1443h302v-1443h-302zM152 1553l232 310h273l-277 -310h-228z" />
<glyph unicode="&#xce;" horiz-adv-x="542" d="M-117 1543l274 318h228l274 -318h-222l-163 197h-6l-163 -197h-222zM120 0v1443h302v-1443h-302z" />
<glyph unicode="&#xcf;" horiz-adv-x="542" d="M-73 1692q0 54 39 92.5t96 38.5t96 -38.5t39 -92.5t-39 -92.5t-96 -38.5t-96 38.5t-39 92.5zM120 0v1443h302v-1443h-302zM346 1692q0 54 39 92.5t96 38.5t96 -38.5t39 -92.5t-39 -92.5t-96 -38.5t-96 38.5t-39 92.5z" />
<glyph unicode="&#xd0;" horiz-adv-x="1479" d="M33 622v221h87v600h556q326 0 507 -187t181 -529q0 -343 -181.5 -535t-506.5 -192h-556v622h-87zM422 250h218q203 0 309.5 121.5t106.5 354.5q0 226 -108 347t-308 121h-218v-351h265v-221h-265v-372z" />
<glyph unicode="&#xd1;" horiz-adv-x="1463" d="M120 0v1443h252l674 -940h8v940h289v-1443h-250l-675 945h-9v-945h-289zM387 1558q0 126 60 198.5t155 72.5q39 0 74 -14t59 -33.5t45 -39.5t42.5 -34t40.5 -14q63 0 65 122h158q0 -125 -60.5 -200t-153.5 -75q-46 0 -87.5 21.5t-65.5 46.5t-52.5 46.5t-52.5 21.5 q-33 0 -50.5 -32.5t-18.5 -86.5h-158z" />
<glyph unicode="&#xd2;" horiz-adv-x="1541" d="M75 721q0 345 187.5 546t508.5 201t508.5 -201t187.5 -546q0 -344 -188 -545t-508 -201q-321 0 -508.5 201t-187.5 545zM383 721q0 -226 105 -359.5t283 -133.5q177 0 282 133.5t105 359.5q0 227 -105 361t-282 134t-282.5 -134t-105.5 -361zM383 1868h273l232 -310h-227 z" />
<glyph unicode="&#xd3;" horiz-adv-x="1541" d="M75 721q0 345 187.5 546t508.5 201t508.5 -201t187.5 -546q0 -344 -188 -545t-508 -201q-321 0 -508.5 201t-187.5 545zM383 721q0 -226 105 -359.5t283 -133.5q177 0 282 133.5t105 359.5q0 227 -105 361t-282 134t-282.5 -134t-105.5 -361zM652 1553l232 310h273 l-277 -310h-228z" />
<glyph unicode="&#xd4;" horiz-adv-x="1541" d="M75 721q0 345 187.5 546t508.5 201t508.5 -201t187.5 -546q0 -344 -188 -545t-508 -201q-321 0 -508.5 201t-187.5 545zM383 721q0 -226 105 -359.5t283 -133.5q177 0 282 133.5t105 359.5q0 227 -105 361t-282 134t-282.5 -134t-105.5 -361zM383 1543l274 318h228 l274 -318h-222l-163 197h-6l-163 -197h-222z" />
<glyph unicode="&#xd5;" horiz-adv-x="1541" d="M75 721q0 345 187.5 546t508.5 201t508.5 -201t187.5 -546q0 -344 -188 -545t-508 -201q-321 0 -508.5 201t-187.5 545zM383 721q0 -226 105 -359.5t283 -133.5q177 0 282 133.5t105 359.5q0 227 -105 361t-282 134t-282.5 -134t-105.5 -361zM426 1558q0 126 60 198.5 t155 72.5q39 0 74 -14t59 -33.5t45 -39.5t42.5 -34t40.5 -14q63 0 65 122h158q0 -125 -60.5 -200t-153.5 -75q-46 0 -87.5 21.5t-65.5 46.5t-52.5 46.5t-52.5 21.5q-33 0 -50.5 -32.5t-18.5 -86.5h-158z" />
<glyph unicode="&#xd6;" horiz-adv-x="1541" d="M75 721q0 345 187.5 546t508.5 201t508.5 -201t187.5 -546q0 -344 -188 -545t-508 -201q-321 0 -508.5 201t-187.5 545zM383 721q0 -226 105 -359.5t283 -133.5q177 0 282 133.5t105 359.5q0 227 -105 361t-282 134t-282.5 -134t-105.5 -361zM427 1692q0 54 39 92.5 t96 38.5t96 -38.5t39 -92.5t-39 -92.5t-96 -38.5t-96 38.5t-39 92.5zM846 1692q0 54 39 92.5t96 38.5t96 -38.5t39 -92.5t-39 -92.5t-96 -38.5t-96 38.5t-39 92.5z" />
<glyph unicode="&#xd7;" horiz-adv-x="1327" d="M184 280l304 304l-304 305l175 175l305 -304l304 304l175 -175l-304 -305l304 -304l-175 -175l-304 304l-305 -304z" />
<glyph unicode="&#xd8;" horiz-adv-x="1541" d="M75 721q0 345 187.5 546t508.5 201q220 0 381 -98l90 136l108 -60l-100 -150q217 -203 217 -575q0 -344 -188 -545t-508 -201q-197 0 -347 78l-80 -120l-102 68l80 120q-120 97 -183.5 250t-63.5 350zM383 721q0 -223 101 -355l514 773q-94 77 -227 77 q-177 0 -282.5 -134t-105.5 -361zM576 282q85 -54 195 -54q177 0 282 133.5t105 359.5q0 194 -77 320z" />
<glyph unicode="&#xd9;" horiz-adv-x="1449" d="M120 510v933h302v-903q0 -141 79.5 -223.5t223.5 -82.5q143 0 222.5 82.5t79.5 223.5v903h302v-933q0 -240 -164.5 -387.5t-439.5 -147.5q-276 0 -440.5 147.5t-164.5 387.5zM337 1868h273l232 -310h-227z" />
<glyph unicode="&#xda;" horiz-adv-x="1449" d="M120 510v933h302v-903q0 -141 79.5 -223.5t223.5 -82.5q143 0 222.5 82.5t79.5 223.5v903h302v-933q0 -240 -164.5 -387.5t-439.5 -147.5q-276 0 -440.5 147.5t-164.5 387.5zM606 1553l232 310h273l-277 -310h-228z" />
<glyph unicode="&#xdb;" horiz-adv-x="1449" d="M120 510v933h302v-903q0 -141 79.5 -223.5t223.5 -82.5q143 0 222.5 82.5t79.5 223.5v903h302v-933q0 -240 -164.5 -387.5t-439.5 -147.5q-276 0 -440.5 147.5t-164.5 387.5zM337 1543l274 318h228l274 -318h-222l-163 197h-6l-163 -197h-222z" />
<glyph unicode="&#xdc;" horiz-adv-x="1449" d="M120 510v933h302v-903q0 -141 79.5 -223.5t223.5 -82.5q143 0 222.5 82.5t79.5 223.5v903h302v-933q0 -240 -164.5 -387.5t-439.5 -147.5q-276 0 -440.5 147.5t-164.5 387.5zM381 1692q0 54 39 92.5t96 38.5t96 -38.5t39 -92.5t-39 -92.5t-96 -38.5t-96 38.5t-39 92.5z M800 1692q0 54 39 92.5t96 38.5t96 -38.5t39 -92.5t-39 -92.5t-96 -38.5t-96 38.5t-39 92.5z" />
<glyph unicode="&#xdd;" horiz-adv-x="1362" d="M28 1443h329l323 -616h7l324 616h324l-503 -904v-539h-302v539zM562 1553l232 310h273l-277 -310h-228z" />
<glyph unicode="&#xde;" horiz-adv-x="1330" d="M151 0v1443h304v-235h307q209 0 342 -123.5t133 -333.5q0 -139 -64.5 -244t-175 -159t-250.5 -54h-294v-294h-302zM453 531h226q117 0 184 56t67 163t-66.5 162.5t-183.5 55.5h-227v-437z" />
<glyph unicode="&#xdf;" horiz-adv-x="1360" d="M148 0v1081q0 185 135 293.5t365 108.5q219 0 356.5 -105t137.5 -272q0 -122 -59 -211t-159 -118v-12q154 -14 244.5 -113t90.5 -253q0 -191 -130.5 -302.5t-353.5 -111.5q-115 0 -181 16v233q51 -17 128 -17q113 0 177 53t64 146q0 97 -72.5 151t-201.5 54h-72v238h50 q89 0 141 53.5t52 145.5q0 86 -56.5 137.5t-150.5 51.5q-104 0 -159 -57.5t-55 -166.5v-1023h-291z" />
<glyph unicode="&#xe0;" horiz-adv-x="1147" d="M54 317q0 149 111 233t323 97l275 17v73q0 79 -51 121.5t-142 42.5q-78 0 -130.5 -37.5t-63.5 -98.5h-267q6 158 136.5 256.5t336.5 98.5q212 0 340 -100t128 -265v-755h-282v170h-6q-44 -85 -136.5 -134t-200.5 -49q-161 0 -266 92t-105 238zM203 1573h273l221 -310 h-231zM345 332q0 -61 47.5 -96.5t127.5 -35.5q103 0 173 57.5t70 146.5v81l-231 -16q-91 -6 -139 -41t-48 -96z" />
<glyph unicode="&#xe1;" horiz-adv-x="1147" d="M54 317q0 149 111 233t323 97l275 17v73q0 79 -51 121.5t-142 42.5q-78 0 -130.5 -37.5t-63.5 -98.5h-267q6 158 136.5 256.5t336.5 98.5q212 0 340 -100t128 -265v-755h-282v170h-6q-44 -85 -136.5 -134t-200.5 -49q-161 0 -266 92t-105 238zM345 332q0 -61 47.5 -96.5 t127.5 -35.5q103 0 173 57.5t70 146.5v81l-231 -16q-91 -6 -139 -41t-48 -96zM459 1263l221 310h273l-263 -310h-231z" />
<glyph unicode="&#xe2;" horiz-adv-x="1147" d="M54 317q0 149 111 233t323 97l275 17v73q0 79 -51 121.5t-142 42.5q-78 0 -130.5 -37.5t-63.5 -98.5h-267q6 158 136.5 256.5t336.5 98.5q212 0 340 -100t128 -265v-755h-282v170h-6q-44 -85 -136.5 -134t-200.5 -49q-161 0 -266 92t-105 238zM202 1253l266 318h219 l266 -318h-223l-149 189h-7l-148 -189h-224zM345 332q0 -61 47.5 -96.5t127.5 -35.5q103 0 173 57.5t70 146.5v81l-231 -16q-91 -6 -139 -41t-48 -96z" />
<glyph unicode="&#xe3;" horiz-adv-x="1147" d="M54 317q0 149 111 233t323 97l275 17v73q0 79 -51 121.5t-142 42.5q-78 0 -130.5 -37.5t-63.5 -98.5h-267q6 158 136.5 256.5t336.5 98.5q212 0 340 -100t128 -265v-755h-282v170h-6q-44 -85 -136.5 -134t-200.5 -49q-161 0 -266 92t-105 238zM235 1275q0 126 60 198.5 t155 72.5q39 0 74 -14t59 -34t45 -39.5t42.5 -33.5t40.5 -14q63 0 65 122h158q0 -125 -60.5 -200t-153.5 -75q-38 0 -71.5 14t-57.5 34t-45 40t-42.5 34t-41.5 14q-33 0 -50.5 -32.5t-18.5 -86.5h-158zM345 332q0 -61 47.5 -96.5t127.5 -35.5q103 0 173 57.5t70 146.5v81 l-231 -16q-91 -6 -139 -41t-48 -96z" />
<glyph unicode="&#xe4;" horiz-adv-x="1147" d="M54 317q0 149 111 233t323 97l275 17v73q0 79 -51 121.5t-142 42.5q-78 0 -130.5 -37.5t-63.5 -98.5h-267q6 158 136.5 256.5t336.5 98.5q212 0 340 -100t128 -265v-755h-282v170h-6q-44 -85 -136.5 -134t-200.5 -49q-161 0 -266 92t-105 238zM234 1390q0 54 39 92.5 t96 38.5t96 -38.5t39 -92.5t-39 -92.5t-96 -38.5t-96 38.5t-39 92.5zM345 332q0 -61 47.5 -96.5t127.5 -35.5q103 0 173 57.5t70 146.5v81l-231 -16q-91 -6 -139 -41t-48 -96zM653 1390q0 54 39 92.5t96 38.5t96 -38.5t39 -92.5t-39 -92.5t-96 -38.5t-96 38.5t-39 92.5z" />
<glyph unicode="&#xe5;" horiz-adv-x="1147" d="M54 317q0 149 111 233t323 97l275 17v73q0 79 -51 121.5t-142 42.5q-78 0 -130.5 -37.5t-63.5 -98.5h-267q6 158 136.5 256.5t336.5 98.5q212 0 340 -100t128 -265v-755h-282v170h-6q-44 -85 -136.5 -134t-200.5 -49q-161 0 -266 92t-105 238zM345 332q0 -61 47.5 -96.5 t127.5 -35.5q103 0 173 57.5t70 146.5v81l-231 -16q-91 -6 -139 -41t-48 -96zM357 1427q0 89 65.5 153t155.5 64q91 0 156 -64t65 -153t-65 -153t-156 -64q-90 0 -155.5 64t-65.5 153zM476 1427q0 -41 30.5 -70.5t71.5 -29.5q42 0 72 29.5t30 70.5t-30 71t-72 30 q-41 0 -71.5 -30t-30.5 -71z" />
<glyph unicode="&#xe6;" horiz-adv-x="1844" d="M54 315q0 149 111 234t322 97l276 15v67q0 77 -54 125t-142 48q-83 0 -135.5 -37t-59.5 -99h-268q8 159 133.5 257t322.5 98q130 0 223.5 -44.5t138.5 -123.5h9q55 81 145.5 124.5t206.5 43.5q230 0 366.5 -148.5t136.5 -398.5v-89h-751v-19q0 -120 70 -193t185 -73 q82 0 139.5 36t78.5 101h269q-25 -161 -158.5 -258t-332.5 -97q-137 0 -244 55t-160 152h-9q-121 -201 -405 -201q-186 0 -300 90.5t-114 237.5zM345 332q0 -61 46 -96.5t124 -35.5q105 0 176.5 59t71.5 145v78l-233 -14q-89 -5 -137 -40.5t-48 -95.5zM1038 664h466 q-4 109 -65.5 173.5t-161.5 64.5t-165.5 -65.5t-73.5 -172.5z" />
<glyph unicode="&#xe7;" horiz-adv-x="1142" d="M58 551q0 261 145.5 415t391.5 154q218 0 353 -119t146 -306h-272q-12 88 -71 141.5t-152 53.5q-113 0 -179 -90.5t-66 -248.5q0 -160 66 -249.5t180 -89.5q93 0 151 49t72 139h272q-12 -175 -126 -286t-301 -130l-42 -100q88 0 136.5 -41.5t48.5 -117.5 q0 -86 -64 -135.5t-177 -50.5q-88 0 -140 16v120q40 -14 111 -14q107 0 107 55q0 31 -28.5 43.5t-96.5 12.5h-56v101l51 112q-214 25 -337 174.5t-123 391.5z" />
<glyph unicode="&#xe8;" horiz-adv-x="1164" d="M58 546q0 263 143.5 418.5t385.5 155.5q238 0 378.5 -148t140.5 -399v-90h-760v-18q0 -119 71 -192.5t186 -73.5q83 0 143.5 36.5t81.5 100.5h269q-24 -160 -161 -257.5t-338 -97.5q-251 0 -395.5 151t-144.5 414zM211 1573h273l221 -310h-231zM349 664h475 q-4 108 -68 173t-166 65q-100 0 -166.5 -66t-74.5 -172z" />
<glyph unicode="&#xe9;" horiz-adv-x="1164" d="M58 546q0 263 143.5 418.5t385.5 155.5q238 0 378.5 -148t140.5 -399v-90h-760v-18q0 -119 71 -192.5t186 -73.5q83 0 143.5 36.5t81.5 100.5h269q-24 -160 -161 -257.5t-338 -97.5q-251 0 -395.5 151t-144.5 414zM349 664h475q-4 108 -68 173t-166 65q-100 0 -166.5 -66 t-74.5 -172zM467 1263l221 310h273l-263 -310h-231z" />
<glyph unicode="&#xea;" horiz-adv-x="1164" d="M58 546q0 263 143.5 418.5t385.5 155.5q238 0 378.5 -148t140.5 -399v-90h-760v-18q0 -119 71 -192.5t186 -73.5q83 0 143.5 36.5t81.5 100.5h269q-24 -160 -161 -257.5t-338 -97.5q-251 0 -395.5 151t-144.5 414zM210 1253l266 318h219l266 -318h-223l-149 189h-7 l-148 -189h-224zM349 664h475q-4 108 -68 173t-166 65q-100 0 -166.5 -66t-74.5 -172z" />
<glyph unicode="&#xeb;" horiz-adv-x="1164" d="M58 546q0 263 143.5 418.5t385.5 155.5q238 0 378.5 -148t140.5 -399v-90h-760v-18q0 -119 71 -192.5t186 -73.5q83 0 143.5 36.5t81.5 100.5h269q-24 -160 -161 -257.5t-338 -97.5q-251 0 -395.5 151t-144.5 414zM242 1390q0 54 39 92.5t96 38.5t96 -38.5t39 -92.5 t-39 -92.5t-96 -38.5t-96 38.5t-39 92.5zM349 664h475q-4 108 -68 173t-166 65q-100 0 -166.5 -66t-74.5 -172zM661 1390q0 54 39 92.5t96 38.5t96 -38.5t39 -92.5t-39 -92.5t-96 -38.5t-96 38.5t-39 92.5z" />
<glyph unicode="&#xec;" horiz-adv-x="500" d="M-125 1573h273l221 -310h-231zM104 0v1101h292v-1101h-292z" />
<glyph unicode="&#xed;" horiz-adv-x="500" d="M104 0v1101h292v-1101h-292zM131 1263l221 310h273l-263 -310h-231z" />
<glyph unicode="&#xee;" horiz-adv-x="500" d="M-126 1253l266 318h219l266 -318h-223l-149 189h-7l-148 -189h-224zM104 0v1101h292v-1101h-292z" />
<glyph unicode="&#xef;" horiz-adv-x="500" d="M-94 1390q0 54 39 92.5t96 38.5t96 -38.5t39 -92.5t-39 -92.5t-96 -38.5t-96 38.5t-39 92.5zM104 0v1101h292v-1101h-292zM325 1390q0 54 39 92.5t96 38.5t96 -38.5t39 -92.5t-39 -92.5t-96 -38.5t-96 38.5t-39 92.5z" />
<glyph unicode="&#xf0;" horiz-adv-x="1253" d="M80 535q0 235 130 377t337 142q84 0 159 -35.5t115 -94.5h17q-21 69 -69.5 148.5t-101.5 139.5l-285 -95l-55 140l228 76q-79 72 -242 184h363q63 -48 119 -104l265 89l57 -141l-202 -66q250 -298 250 -694q0 -284 -149 -451.5t-395 -167.5q-244 0 -392.5 151t-148.5 402 zM379 533q0 -145 67 -230t182 -85t182.5 84.5t67.5 230.5q0 144 -68 229.5t-182 85.5q-115 0 -182 -85t-67 -230z" />
<glyph unicode="&#xf1;" horiz-adv-x="1227" d="M99 0v1101h282v-197h6q97 213 354 213q183 0 287.5 -109t104.5 -302v-706h-292v645q0 110 -56.5 169.5t-159.5 59.5q-105 0 -169.5 -68t-64.5 -178v-628h-292zM272 1275q0 126 60 198.5t155 72.5q39 0 74 -14t59 -34t45 -39.5t42.5 -33.5t40.5 -14q63 0 65 122h158 q0 -125 -60.5 -200t-153.5 -75q-38 0 -71.5 14t-57.5 34t-45 40t-42.5 34t-41.5 14q-33 0 -50.5 -32.5t-18.5 -86.5h-158z" />
<glyph unicode="&#xf2;" horiz-adv-x="1201" d="M58 551q0 263 147 416t396 153q250 0 396.5 -152.5t146.5 -416.5q0 -267 -145.5 -418.5t-397.5 -151.5q-251 0 -397 152t-146 418zM226 1573h273l221 -310h-231zM354 551q0 -164 65.5 -254.5t181.5 -90.5t181 90.5t65 254.5q0 162 -65.5 253.5t-180.5 91.5 q-116 0 -181.5 -91.5t-65.5 -253.5z" />
<glyph unicode="&#xf3;" horiz-adv-x="1201" d="M58 551q0 263 147 416t396 153q250 0 396.5 -152.5t146.5 -416.5q0 -267 -145.5 -418.5t-397.5 -151.5q-251 0 -397 152t-146 418zM354 551q0 -164 65.5 -254.5t181.5 -90.5t181 90.5t65 254.5q0 162 -65.5 253.5t-180.5 91.5q-116 0 -181.5 -91.5t-65.5 -253.5z M482 1263l221 310h273l-263 -310h-231z" />
<glyph unicode="&#xf4;" horiz-adv-x="1201" d="M58 551q0 263 147 416t396 153q250 0 396.5 -152.5t146.5 -416.5q0 -267 -145.5 -418.5t-397.5 -151.5q-251 0 -397 152t-146 418zM225 1253l266 318h219l266 -318h-223l-149 189h-7l-148 -189h-224zM354 551q0 -164 65.5 -254.5t181.5 -90.5t181 90.5t65 254.5 q0 162 -65.5 253.5t-180.5 91.5q-116 0 -181.5 -91.5t-65.5 -253.5z" />
<glyph unicode="&#xf5;" horiz-adv-x="1201" d="M58 551q0 263 147 416t396 153q250 0 396.5 -152.5t146.5 -416.5q0 -267 -145.5 -418.5t-397.5 -151.5q-251 0 -397 152t-146 418zM258 1275q0 126 60 198.5t155 72.5q39 0 74 -14t59 -34t45 -39.5t42.5 -33.5t40.5 -14q63 0 65 122h158q0 -125 -60.5 -200t-153.5 -75 q-38 0 -71.5 14t-57.5 34t-45 40t-42.5 34t-41.5 14q-33 0 -50.5 -32.5t-18.5 -86.5h-158zM354 551q0 -164 65.5 -254.5t181.5 -90.5t181 90.5t65 254.5q0 162 -65.5 253.5t-180.5 91.5q-116 0 -181.5 -91.5t-65.5 -253.5z" />
<glyph unicode="&#xf6;" horiz-adv-x="1201" d="M58 551q0 263 147 416t396 153q250 0 396.5 -152.5t146.5 -416.5q0 -267 -145.5 -418.5t-397.5 -151.5q-251 0 -397 152t-146 418zM257 1390q0 54 39 92.5t96 38.5t96 -38.5t39 -92.5t-39 -92.5t-96 -38.5t-96 38.5t-39 92.5zM354 551q0 -164 65.5 -254.5t181.5 -90.5 t181 90.5t65 254.5q0 162 -65.5 253.5t-180.5 91.5q-116 0 -181.5 -91.5t-65.5 -253.5zM676 1390q0 54 39 92.5t96 38.5t96 -38.5t39 -92.5t-39 -92.5t-96 -38.5t-96 38.5t-39 92.5z" />
<glyph unicode="&#xf7;" d="M124 470v218h1079v-218h-1079zM497 190q0 71 46.5 115t120.5 44t120.5 -44t46.5 -115q0 -70 -46.5 -114t-120.5 -44t-120.5 44t-46.5 114zM497 968q0 71 46.5 115t120.5 44t120.5 -44t46.5 -115q0 -70 -46.5 -114t-120.5 -44t-120.5 44t-46.5 114z" />
<glyph unicode="&#xf8;" horiz-adv-x="1201" d="M58 551q0 263 147 416t396 153q145 0 259 -54l64 102l106 -59l-68 -108q182 -154 182 -450q0 -267 -145.5 -418.5t-397.5 -151.5q-137 0 -248 48l-62 -99l-104 64l62 98q-191 152 -191 459zM354 551q0 -133 45 -220l330 526q-54 39 -128 39q-116 0 -181.5 -91.5 t-65.5 -253.5zM483 237q53 -31 118 -31q116 0 181 90.5t65 254.5q0 122 -38 206z" />
<glyph unicode="&#xf9;" horiz-adv-x="1227" d="M94 395v706h292v-645q0 -110 58 -169.5t161 -59.5t167 68t64 179v627h292v-1101h-282v199h-6q-42 -104 -131.5 -159.5t-214.5 -55.5q-181 0 -290.5 110.5t-109.5 300.5zM237 1573h273l221 -310h-231z" />
<glyph unicode="&#xfa;" horiz-adv-x="1227" d="M94 395v706h292v-645q0 -110 58 -169.5t161 -59.5t167 68t64 179v627h292v-1101h-282v199h-6q-42 -104 -131.5 -159.5t-214.5 -55.5q-181 0 -290.5 110.5t-109.5 300.5zM493 1263l221 310h273l-263 -310h-231z" />
<glyph unicode="&#xfb;" horiz-adv-x="1227" d="M94 395v706h292v-645q0 -110 58 -169.5t161 -59.5t167 68t64 179v627h292v-1101h-282v199h-6q-42 -104 -131.5 -159.5t-214.5 -55.5q-181 0 -290.5 110.5t-109.5 300.5zM236 1253l266 318h219l266 -318h-223l-149 189h-7l-148 -189h-224z" />
<glyph unicode="&#xfc;" horiz-adv-x="1227" d="M94 395v706h292v-645q0 -110 58 -169.5t161 -59.5t167 68t64 179v627h292v-1101h-282v199h-6q-42 -104 -131.5 -159.5t-214.5 -55.5q-181 0 -290.5 110.5t-109.5 300.5zM268 1390q0 54 39 92.5t96 38.5t96 -38.5t39 -92.5t-39 -92.5t-96 -38.5t-96 38.5t-39 92.5z M687 1390q0 54 39 92.5t96 38.5t96 -38.5t39 -92.5t-39 -92.5t-96 -38.5t-96 38.5t-39 92.5z" />
<glyph unicode="&#xfd;" horiz-adv-x="1136" d="M13 1101h320l238 -864h6l239 864h308l-381 -1123q-70 -210 -183.5 -295t-320.5 -85q-89 0 -111 4v226q15 -3 66 -3q83 0 130.5 30.5t64.5 95.5l10 42zM450 1263l221 310h273l-263 -310h-231z" />
<glyph unicode="&#xfe;" horiz-adv-x="1253" d="M107 -346v1853h287v-587h18q45 94 133 146.5t201 52.5q209 0 328 -151t119 -417t-118.5 -417.5t-326.5 -151.5q-118 0 -205 49t-128 137h-17v-514h-291zM394 550q1 -155 68 -243.5t183 -88.5q117 0 183 88.5t66 244.5q0 155 -66 243.5t-183 88.5q-116 0 -183 -89.5 t-68 -243.5z" />
<glyph unicode="&#xff;" horiz-adv-x="1136" d="M13 1101h320l238 -864h6l239 864h308l-381 -1123q-70 -210 -183.5 -295t-320.5 -85q-89 0 -111 4v226q15 -3 66 -3q83 0 130.5 30.5t64.5 95.5l10 42zM225 1390q0 54 39 92.5t96 38.5t96 -38.5t39 -92.5t-39 -92.5t-96 -38.5t-96 38.5t-39 92.5zM644 1390q0 54 39 92.5 t96 38.5t96 -38.5t39 -92.5t-39 -92.5t-96 -38.5t-96 38.5t-39 92.5z" />
<glyph unicode="&#x152;" horiz-adv-x="2216" d="M80 721q0 224 82.5 395.5t231.5 265t341 93.5q159 0 282 -71t186 -200v239h916v-249h-644v-348h606v-232h-606v-364h644v-250h-916v236q-54 -121 -183.5 -194.5t-288.5 -73.5q-143 0 -264 54.5t-206 152.5t-133 238.5t-48 307.5zM388 721q0 -226 106 -361t285 -135 t285 135t106 361q0 227 -106.5 362.5t-284.5 135.5t-284.5 -135.5t-106.5 -362.5z" />
<glyph unicode="&#x153;" horiz-adv-x="1944" d="M58 548q0 260 144.5 416t385.5 156q265 0 398 -197h14q56 92 160 144.5t229 52.5q225 0 361.5 -150t136.5 -397v-90h-750v-27q0 -116 70.5 -186.5t186.5 -70.5q81 0 139 34.5t76 92.5h269q-23 -151 -157 -248t-320 -97q-133 0 -239 52t-162 144h-14q-133 -196 -395 -196 q-244 0 -388.5 154t-144.5 413zM347 549q0 -159 64.5 -248t179.5 -89q116 0 180.5 89t64.5 249t-65 250t-180 90t-179.5 -90.5t-64.5 -250.5zM1137 664h465q-4 108 -66 173.5t-161 65.5q-100 0 -166 -66.5t-72 -172.5z" />
<glyph unicode="&#x178;" horiz-adv-x="1362" d="M28 1443h329l323 -616h7l324 616h324l-503 -904v-539h-302v539zM337 1692q0 54 39 92.5t96 38.5t96 -38.5t39 -92.5t-39 -92.5t-96 -38.5t-96 38.5t-39 92.5zM756 1692q0 54 39 92.5t96 38.5t96 -38.5t39 -92.5t-39 -92.5t-96 -38.5t-96 38.5t-39 92.5z" />
<glyph unicode="&#x2c6;" horiz-adv-x="1011" d="M130 1253l266 318h219l266 -318h-223l-149 189h-7l-148 -189h-224z" />
<glyph unicode="&#x2dc;" horiz-adv-x="1011" d="M156 1275q0 126 60 198.5t155 72.5q39 0 74 -14t59 -34t45 -39.5t42.5 -33.5t40.5 -14q63 0 65 122h158q0 -125 -60.5 -200t-153.5 -75q-38 0 -71.5 14t-57.5 34t-45 40t-42.5 34t-41.5 14q-33 0 -50.5 -32.5t-18.5 -86.5h-158z" />
<glyph unicode="&#x2000;" horiz-adv-x="973" />
<glyph unicode="&#x2001;" horiz-adv-x="1947" />
<glyph unicode="&#x2002;" horiz-adv-x="973" />
<glyph unicode="&#x2003;" horiz-adv-x="1947" />
<glyph unicode="&#x2004;" horiz-adv-x="649" />
<glyph unicode="&#x2005;" horiz-adv-x="486" />
<glyph unicode="&#x2006;" horiz-adv-x="324" />
<glyph unicode="&#x2007;" horiz-adv-x="324" />
<glyph unicode="&#x2008;" horiz-adv-x="243" />
<glyph unicode="&#x2009;" horiz-adv-x="389" />
<glyph unicode="&#x200a;" horiz-adv-x="108" />
<glyph unicode="&#x2010;" horiz-adv-x="905" d="M124 451v255h657v-255h-657z" />
<glyph unicode="&#x2011;" horiz-adv-x="905" d="M124 451v255h657v-255h-657z" />
<glyph unicode="&#x2012;" horiz-adv-x="905" d="M124 451v255h657v-255h-657z" />
<glyph unicode="&#x2013;" horiz-adv-x="1024" d="M0 454v262h1024v-262h-1024z" />
<glyph unicode="&#x2014;" horiz-adv-x="2048" d="M0 454v262h2048v-262h-2048z" />
<glyph unicode="&#x2018;" horiz-adv-x="593" d="M91 1443h272l103 -563h-239z" />
<glyph unicode="&#x2019;" horiz-adv-x="593" d="M128 880l102 563h273l-137 -563h-238z" />
<glyph unicode="&#x201a;" horiz-adv-x="593" d="M93 -428l102 591h273l-128 -591h-247z" />
<glyph unicode="&#x201c;" horiz-adv-x="1062" d="M100 1443h272l103 -563h-239zM551 1443h273l102 -563h-238z" />
<glyph unicode="&#x201d;" horiz-adv-x="1062" d="M136 880l103 563h272l-136 -563h-239zM588 880l102 563h273l-137 -563h-238z" />
<glyph unicode="&#x201e;" horiz-adv-x="1062" d="M93 -428l102 591h268l-123 -591h-247zM567 -428l102 591h268l-123 -591h-247z" />
<glyph unicode="&#x2022;" horiz-adv-x="994" d="M160 620q0 139 99 238t238 99t238 -99t99 -238t-99 -238t-238 -99t-238 99t-99 238z" />
<glyph unicode="&#x2026;" horiz-adv-x="1665" d="M124 149q0 67 47 114t114 47t114 -47t47 -114t-47 -114t-114 -47t-114 47t-47 114zM673 149q0 67 46.5 114t114.5 47t114.5 -47t46.5 -114t-47 -114t-114 -47t-114 47t-47 114zM1220 149q0 67 47 114t114 47t114 -47t47 -114t-47 -114t-114 -47t-114 47t-47 114z" />
<glyph unicode="&#x202f;" horiz-adv-x="389" />
<glyph unicode="&#x2039;" horiz-adv-x="845" d="M113 562v8l348 411h271l-346 -409v-10l346 -411h-275z" />
<glyph unicode="&#x203a;" horiz-adv-x="845" d="M113 151l346 411v10l-346 409h271l348 -411v-8l-344 -411h-275z" />
<glyph unicode="&#x205f;" horiz-adv-x="486" />
<glyph unicode="&#x20ac;" d="M84 488v158h158q-3 38 -3 76q0 24 2 70h-157v158h182q64 249 263.5 384.5t492.5 135.5q124 0 203 -23v-249q-82 18 -198 18q-157 0 -273 -68.5t-170 -197.5h536v-158h-575q-3 -34 -3 -70q0 -44 4 -76h574v-158h-534q54 -127 168 -194.5t269 -67.5q142 0 206 16v-252 q-82 -17 -207 -17q-292 0 -490.5 134.5t-263.5 380.5h-184z" />
<glyph unicode="&#x2122;" horiz-adv-x="2273" d="M99 1223v220h831v-220h-286v-660h-260v660h-285zM1082 563v880h304l230 -480h17l232 480h303v-880h-235v553h-17l-228 -483h-127l-226 483h-17v-553h-236z" />
<glyph unicode="&#x25fc;" horiz-adv-x="1100" d="M0 0v1100h1100v-1100h-1100z" />
<glyph unicode="&#xfb01;" horiz-adv-x="1234" d="M28 880v221h149v98q0 159 82.5 229t273.5 70q68 0 135 -10v-203q-37 7 -80 7q-66 0 -95 -26t-30 -84v-81h206v-221h-200v-880h-292v880h-149zM827 1374q0 65 46 108.5t111 43.5q66 0 112 -43.5t46 -108.5t-46 -109t-112 -44q-65 0 -111 44t-46 109zM838 0v1101h292v-1101 h-292z" />
<glyph unicode="&#xfb02;" horiz-adv-x="1239" d="M28 880v221h149v98q0 159 82.5 229t273.5 70q68 0 135 -10v-203q-37 7 -80 7q-66 0 -95 -26t-30 -84v-81h206v-221h-200v-880h-292v880h-149zM841 0v1512h292v-1512h-292z" />
</font>
</defs>
</svg>
